<svg class="ldi-9ubvj5" width="100%" height="100%" xmlns="http://www.w3.org/2000/svg" xmlns:xlink="http://www.w3.org/1999/xlink" viewBox="0 0 100 100" preserveAspectRatio="xMidYMid"><!--?xml version="1.0" encoding="utf-8"?--><!--Generator: Adobe Illustrator 21.0.0, SVG Export Plug-In . SVG Version: 6.00 Build 0)--><svg version="1.1" id="圖層_1" xmlns="http://www.w3.org/2000/svg" xmlns:xlink="http://www.w3.org/1999/xlink" x="0px" y="0px" viewBox="0 0 100 100" style="transform-origin: 50px 50px 0px;" xml:space="preserve"><g style="transform-origin: 50px 50px 0px;"><g fill="#5794fe" style="fill: rgb(87, 148, 254); transform-origin: 50px 50px 0px; transform: scale(1);"><g style="transform-origin: 50px 50px 0px;"><g fill="#5794fe" style="fill: rgb(87, 148, 254);"><style type="text/css" class="ld ld-breath" style="transform-origin: 50px 50px 0px; animation-duration: 1s; animation-delay: -1s; animation-direction: normal;">.st0{fill:#C33737;} .st1{fill:#77A4BD;} .st2{fill:#A0C8D7;} .st3{fill:#F5E6C8;} .st4{fill:#F8B26A;} .st5{fill:#F47E60;} .st6{fill:#E0E0E0;} .st7{fill:#E15B64;} .st8{fill:url(#SVGID_1_);stroke:#333333;stroke-width:2;stroke-linecap:round;stroke-linejoin:round;stroke-miterlimit:10;} .st9{fill:url(#SVGID_2_);stroke:#333333;stroke-width:2;stroke-linecap:round;stroke-linejoin:round;stroke-miterlimit:10;} .st10{fill:#C33737;stroke:#333333;stroke-width:5;stroke-miterlimit:10;} .st11{fill:#E0E0E0;stroke:#333333;stroke-width:3;stroke-linecap:round;stroke-linejoin:round;stroke-miterlimit:10;} .st12{fill:#333333;stroke:#333333;stroke-width:4;stroke-linecap:round;stroke-linejoin:round;stroke-miterlimit:10;} .st13{fill:#66503A;} .st14{fill:#333333;} .st15{fill:#666666;} .st16{fill:#E15B64;stroke:#333333;stroke-width:4;stroke-linecap:square;stroke-miterlimit:10;} .st17{fill:#C33737;stroke:#333333;stroke-width:4;stroke-linecap:round;stroke-linejoin:round;stroke-miterlimit:10;} .st18{fill:#ABBD81;} .st19{fill:#B3B3B3;} .st20{fill:#4A3827;} .st21{fill:none;stroke:#333333;stroke-width:1.9195;stroke-linecap:round;stroke-miterlimit:10;} .st22{fill:#FFFFFF;} .st23{fill:#EBA523;stroke:#000000;stroke-width:2.1426;stroke-linecap:round;stroke-linejoin:round;} .st24{fill:#E0E0E0;stroke:#000000;stroke-width:2.1426;stroke-linecap:round;} .st25{fill:#F5E6C8;stroke:#000000;stroke-width:2.1426;stroke-linecap:round;stroke-linejoin:round;} .st26{fill:#333333;stroke:#000000;stroke-width:2.1426;stroke-linecap:round;stroke-linejoin:round;} .st27{fill:none;stroke:#000000;stroke-width:2.1426;stroke-linecap:round;stroke-linejoin:round;} .st28{fill:#EBA523;} .st29{fill:#F2F2F2;} .st30{fill:none;stroke:#333333;stroke-width:1.9414;} .st31{fill:none;stroke:#333333;stroke-width:0.9779;} .st32{fill:#C9C9C9;} .st33{fill:#E0E0E0;stroke:#333333;stroke-width:4;stroke-linecap:square;stroke-miterlimit:10;} .st34{fill:#E15B64;stroke:#333333;stroke-width:5.1702;stroke-linecap:round;stroke-linejoin:round;stroke-miterlimit:10;} .st35{fill:#C33737;stroke:#333333;stroke-width:5.1702;stroke-linecap:round;stroke-linejoin:round;stroke-miterlimit:10;} .st36{fill:#E0E0E0;stroke:#333333;stroke-width:5.1702;stroke-linecap:round;stroke-linejoin:round;stroke-miterlimit:10;} .st37{fill:#666666;stroke:#333333;stroke-width:5.0109;stroke-linecap:round;stroke-linejoin:round;stroke-miterlimit:10;} .st38{fill:#333333;stroke:#333333;stroke-width:5.0109;stroke-linecap:round;stroke-linejoin:round;stroke-miterlimit:10;} .st39{fill:#E0E0E0;stroke:#333333;stroke-width:5.0109;stroke-linecap:round;stroke-linejoin:round;stroke-miterlimit:10;} .st40{fill:#666666;stroke:#333333;stroke-width:4.8877;stroke-linecap:round;stroke-linejoin:round;stroke-miterlimit:10;} .st41{fill:#333333;stroke:#333333;stroke-width:4.8877;stroke-linecap:round;stroke-linejoin:round;stroke-miterlimit:10;} .st42{fill:#E0E0E0;stroke:#333333;stroke-width:4.8877;stroke-linecap:round;stroke-linejoin:round;stroke-miterlimit:10;} .st43{fill:#666666;stroke:#333333;stroke-width:2.4823;stroke-linecap:round;stroke-linejoin:round;stroke-miterlimit:10;} .st44{fill:#E0E0E0;stroke:#333333;stroke-width:2.4823;stroke-linecap:round;stroke-linejoin:round;stroke-miterlimit:10;} .st45{fill:#F8B26A;stroke:#333333;stroke-width:2.4823;stroke-linecap:round;stroke-linejoin:round;stroke-miterlimit:10;} .st46{fill:#E0E0E0;stroke:#333333;stroke-width:1.5;stroke-linecap:round;stroke-linejoin:round;stroke-miterlimit:10;} .st47{fill:#E0E0E0;stroke:#333333;stroke-width:4.2024;stroke-linecap:round;stroke-linejoin:round;stroke-miterlimit:10;} .st48{fill:none;stroke:#333333;stroke-width:3.583;stroke-linecap:round;stroke-linejoin:round;stroke-miterlimit:10;} .st49{fill:#77A4BD;stroke:#333333;stroke-width:3;stroke-linecap:round;stroke-linejoin:round;stroke-miterlimit:10;} .st50{fill:none;stroke:#333333;stroke-width:2.1242;stroke-linecap:round;stroke-linejoin:round;stroke-miterlimit:10;} .st51{fill:none;stroke:#333333;stroke-width:1.1469;stroke-linecap:round;stroke-linejoin:round;stroke-miterlimit:10;} .st52{fill:none;stroke:#333333;stroke-width:3.1863;stroke-linecap:round;stroke-linejoin:round;stroke-miterlimit:10;} .st53{fill:#E0E0E0;stroke:#333333;stroke-width:4.3804;stroke-linecap:round;stroke-linejoin:round;stroke-miterlimit:10;} .st54{fill:none;stroke:#333333;stroke-width:4;stroke-miterlimit:10;} .st55{fill:#E15B64;stroke:#333333;stroke-width:4;stroke-miterlimit:10;} .st56{fill:#E15B64;stroke:#333333;stroke-width:5;stroke-miterlimit:10;} .st57{fill:#E15B64;stroke:#333333;stroke-width:4;stroke-linecap:round;stroke-linejoin:round;stroke-miterlimit:10;} .st58{fill:#849B87;} .st59{fill:none;stroke:#333333;stroke-width:4;stroke-linejoin:round;stroke-miterlimit:10;} .st60{fill:#E0E0E0;stroke:#333333;stroke-width:2;stroke-linecap:round;stroke-linejoin:round;stroke-miterlimit:10;} .st61{fill:#FFFFFF;stroke:#000000;stroke-width:4;stroke-miterlimit:10;} .st62{fill:none;stroke:#849B87;stroke-width:4;stroke-linecap:round;stroke-miterlimit:10;} .st63{fill:none;stroke:#E15B64;stroke-width:4;stroke-linecap:round;stroke-miterlimit:10;} .st64{opacity:0.7;fill:#E0E0E0;} .st65{fill:none;stroke:#333333;stroke-width:3;stroke-miterlimit:10;} .st66{fill:#F5E6C8;stroke:#333333;stroke-width:3;stroke-miterlimit:10;} .st67{fill:#E0E0E0;stroke:#000000;stroke-width:3;stroke-miterlimit:10;} .st68{fill:none;stroke:#FFFFFF;stroke-width:2;stroke-miterlimit:10;} .st69{fill:#E15B64;stroke:#333333;stroke-width:4.5704;stroke-miterlimit:10;} .st70{fill:#F47E60;stroke:#333333;stroke-width:4.5704;stroke-miterlimit:10;} .st71{fill:none;stroke:#333333;stroke-width:3.0919;stroke-linecap:round;stroke-miterlimit:10;} .st72{fill-rule:evenodd;clip-rule:evenodd;fill:#F47E60;} .st73{fill:none;stroke:#FFFFFF;stroke-width:2.0255;stroke-miterlimit:10;} .st74{fill:#FFFFFF;stroke:#333333;stroke-width:4.7792;stroke-linecap:round;stroke-linejoin:round;stroke-miterlimit:10;} .st75{fill:none;stroke:#FFFFFF;stroke-width:3.8751;stroke-linecap:round;stroke-linejoin:round;stroke-miterlimit:10;}</style><g class="ld ld-breath" style="transform-origin: 50px 50px 0px; animation-duration: 1s; animation-delay: -0.95s; animation-direction: normal;"><path class="st14" d="M85.413,54.446c-0.028-0.135-0.133-0.469-0.516-0.629L49.93,39.157c-0.332-0.139-0.709-0.063-0.959,0.195 L15.934,73.185c-0.291,0.297-0.258,0.646-0.23,0.781c0.028,0.136,0.133,0.469,0.516,0.629l5.738,2.406l3.039,1.274l26.19,10.98l0,0 c0.331,0.14,0.708,0.062,0.96-0.194l23.975-24.553l2.302-2.357l6.76-6.923C85.473,54.93,85.441,54.582,85.413,54.446z" fill="#49b7f4" style="fill: rgb(73, 183, 244);"></path></g><g class="ld ld-breath" style="transform-origin: 50px 50px 0px; animation-duration: 1s; animation-delay: -0.9s; animation-direction: normal;"><path class="st14" d="M85.803,40.186c-0.028-0.135-0.133-0.469-0.516-0.629L50.32,24.897c-0.332-0.139-0.709-0.063-0.959,0.195 L16.323,58.924c-0.291,0.297-0.258,0.646-0.23,0.781c0.028,0.136,0.133,0.469,0.516,0.629l5.738,2.406l3.039,1.274l26.19,10.98l0,0 c0.331,0.14,0.708,0.062,0.96-0.194L76.51,50.247l2.302-2.357l6.76-6.923C85.863,40.669,85.83,40.321,85.803,40.186z" fill="#49b7f4" style="fill: rgb(73, 183, 244);"></path></g><g class="ld ld-breath" style="transform-origin: 50px 50px 0px; animation-duration: 1s; animation-delay: -0.85s; animation-direction: normal;"><path class="st6" d="M79.549,51.521l-24.822,25.42c-0.759,0.777-1.771,1.189-2.807,1.189c-0.514,0-1.032-0.101-1.529-0.309 L23.084,66.372l-3.039-1.274c-0.717-0.301-1.434-0.601-2.152-0.902c-0.52-0.218-1.04-0.436-1.56-0.654 c-0.477-0.2-0.974-0.619-1.434-0.154c-0.204,0.207-0.304,0.493-0.376,0.774c-0.254,0.989-0.202,2.071-0.163,3.084 c0.042,1.082,0.197,2.158,0.452,3.21c0.153,0.632,0.339,1.256,0.555,1.869c0.208,0.589,0.428,1.203,0.762,1.735 c0.195,0.311,0.465,0.663,0.815,0.793c0.079,0.029,0.158,0.059,0.236,0.092c0.16,0.067,0.319,0.134,0.479,0.201 c0.446,0.187,0.893,0.374,1.339,0.561c0.595,0.25,1.191,0.499,1.786,0.749c0.72,0.302,1.44,0.604,2.16,0.905 c0.82,0.344,1.64,0.687,2.46,1.031c0.895,0.375,1.791,0.751,2.686,1.126c0.946,0.397,1.893,0.794,2.839,1.19 c0.973,0.408,1.946,0.816,2.919,1.224c0.975,0.409,1.95,0.818,2.925,1.226c0.953,0.399,1.905,0.799,2.858,1.198 c0.906,0.38,1.811,0.759,2.717,1.139c0.834,0.35,1.668,0.699,2.503,1.049c0.738,0.309,1.476,0.619,2.215,0.929 c0.618,0.259,1.236,0.518,1.853,0.777c0.473,0.198,0.946,0.396,1.419,0.595c0.303,0.127,0.607,0.254,0.91,0.382 c0.109,0.046,0.219,0.092,0.329,0.138c0.33,0.139,0.708,0.063,0.959-0.195L83.19,57.777v-4.73v-3.322v-1.933l-1.339,1.372 L79.549,51.521z" fill="rgb(224, 224, 224)" style="fill: rgb(224, 224, 224);"></path></g><g class="ld ld-breath" style="transform-origin: 50px 50px 0px; animation-duration: 1s; animation-delay: -0.8s; animation-direction: normal;"><path d="M87.764,43.107c0.911-0.933,1.3-2.253,1.041-3.531c-0.259-1.278-1.132-2.342-2.334-2.846l-34.967-14.66 c-1.498-0.627-3.2-0.282-4.336,0.88c-0.164,0.168-0.327,0.335-0.491,0.503c-0.761,0.779-1.522,1.559-2.283,2.338 c-1.24,1.269-2.479,2.539-3.719,3.808c-1.56,1.598-3.121,3.196-4.681,4.794c-1.723,1.765-3.447,3.53-5.17,5.294 c-1.729,1.77-3.457,3.54-5.186,5.31c-1.576,1.614-3.152,3.228-4.728,4.842c-1.266,1.296-2.532,2.593-3.798,3.889 c-1.077,1.103-2.154,2.089-3.021,3.39c-0.596,0.895-0.963,1.825-1.335,2.831c-0.1,0.27-0.194,0.542-0.283,0.815 c-0.168,0.517-0.316,1.041-0.442,1.57c-0.247,1.034-0.411,2.088-0.484,3.149c-0.146,2.124,0.08,4.262,0.633,6.317 c0.44,1.636,1.002,3.311,2.089,4.64c0.518,0.633,1.068,1.107,1.83,1.372c0.208,0.072,0.41,0.172,0.613,0.257 c1.345,0.564,2.69,1.128,4.035,1.692c1.954,0.819,3.908,1.638,5.862,2.458c2.248,0.943,4.497,1.885,6.745,2.828 c2.228,0.934,4.456,1.868,6.683,2.802c1.893,0.793,3.785,1.587,5.678,2.38c1.242,0.521,2.485,1.042,3.727,1.563 c0.316,0.132,0.632,0.265,0.948,0.398c0.496,0.208,1.015,0.309,1.529,0.309c1.035,0,2.048-0.412,2.807-1.189l33.037-33.833 c0.911-0.933,1.3-2.253,1.041-3.531c-0.259-1.278-1.132-2.342-2.335-2.846l-0.217-0.091v-6.355L87.764,43.107z M83.19,49.725v3.322 v4.73L52.535,89.17c-0.252,0.258-0.629,0.334-0.959,0.195c-0.11-0.046-0.219-0.092-0.329-0.138c-0.303-0.127-0.607-0.254-0.91-0.382 c-0.473-0.198-0.946-0.396-1.419-0.595c-0.618-0.259-1.236-0.518-1.853-0.777c-0.738-0.31-1.476-0.619-2.215-0.929 c-0.834-0.35-1.668-0.699-2.503-1.049c-0.906-0.38-1.811-0.759-2.717-1.139c-0.953-0.399-1.905-0.799-2.858-1.198 c-0.975-0.409-1.95-0.818-2.925-1.226c-0.973-0.408-1.946-0.816-2.919-1.224c-0.946-0.397-1.893-0.794-2.839-1.19 c-0.895-0.375-1.791-0.751-2.686-1.126c-0.82-0.344-1.64-0.687-2.46-1.031c-0.72-0.302-1.44-0.604-2.16-0.905 c-0.595-0.25-1.191-0.499-1.786-0.749c-0.446-0.187-0.893-0.374-1.339-0.561c-0.16-0.067-0.319-0.134-0.479-0.201 c-0.078-0.033-0.157-0.063-0.236-0.092c-0.35-0.13-0.621-0.482-0.815-0.793c-0.333-0.532-0.554-1.145-0.762-1.735 c-0.216-0.613-0.402-1.237-0.555-1.869c-0.254-1.052-0.41-2.128-0.452-3.21c-0.039-1.014-0.091-2.095,0.163-3.084 c0.072-0.281,0.172-0.568,0.376-0.774c0.459-0.465,0.957-0.046,1.434,0.154c0.52,0.218,1.04,0.436,1.56,0.654 c0.717,0.301,1.434,0.601,2.152,0.902l3.039,1.274L50.391,77.82c0.497,0.208,1.015,0.309,1.529,0.309 c1.036,0,2.048-0.412,2.807-1.189l24.822-25.42l2.302-2.357l1.339-1.372V49.725z M85.572,40.966l-6.76,6.923l-2.302,2.357 L52.535,74.8c-0.252,0.257-0.629,0.334-0.96,0.194l0,0l-26.19-10.98l-3.039-1.274l-5.738-2.406c-0.383-0.16-0.488-0.493-0.516-0.629 c-0.019-0.093-0.033-0.287,0.049-0.495c0.016-0.033,0.033-0.067,0.049-0.1c0.035-0.063,0.073-0.125,0.132-0.186L49.36,25.091 c0.251-0.258,0.628-0.334,0.959-0.195l34.967,14.66c0.383,0.16,0.488,0.494,0.516,0.629C85.83,40.321,85.863,40.669,85.572,40.966z" fill="#5794fe" style="fill: rgb(87, 148, 254);"></path></g><g class="ld ld-breath" style="transform-origin: 50px 50px 0px; animation-duration: 1s; animation-delay: -0.75s; animation-direction: normal;"><path class="st0" d="M44.588,51.418l-2.126-5.455l-8.505,1.083c-0.757,0.096-1.21-0.45-0.758-0.914l21.966-22.514l12.984,5.34 L46.183,51.473C45.731,51.936,44.777,51.904,44.588,51.418z" fill="#9d68ff" style="fill: rgb(157, 104, 255);"></path></g><g class="ld ld-breath" style="transform-origin: 50px 50px 0px; animation-duration: 1s; animation-delay: -0.7s; animation-direction: normal;"><path class="st14" d="M85.413,25.924c-0.028-0.135-0.133-0.469-0.516-0.629L49.93,10.635c-0.332-0.139-0.709-0.063-0.959,0.195 L15.934,44.662c-0.291,0.297-0.258,0.646-0.23,0.781c0.028,0.136,0.133,0.469,0.516,0.629l5.738,2.406l3.039,1.274l26.19,10.98l0,0 c0.331,0.14,0.708,0.062,0.96-0.194l23.975-24.553l2.302-2.357l6.76-6.923C85.473,26.407,85.441,26.059,85.413,25.924z" fill="#49b7f4" style="fill: rgb(73, 183, 244);"></path></g><g class="ld ld-breath" style="transform-origin: 50px 50px 0px; animation-duration: 1s; animation-delay: -0.65s; animation-direction: normal;"><path class="st6" d="M79.159,37.259l-24.822,25.42c-0.759,0.777-1.771,1.189-2.807,1.189c-0.514,0-1.032-0.101-1.529-0.309 c0,0-27.307-11.449-27.307-11.449l-3.039-1.274c-0.717-0.301-1.434-0.601-2.152-0.902c-0.52-0.218-1.04-0.436-1.56-0.654 c-0.477-0.2-0.974-0.619-1.434-0.154c-0.204,0.207-0.304,0.493-0.376,0.774c-0.254,0.989-0.202,2.071-0.163,3.084 c0.042,1.082,0.197,2.158,0.452,3.21c0.153,0.632,0.339,1.256,0.555,1.869c0.208,0.589,0.428,1.203,0.762,1.735 c0.195,0.311,0.465,0.663,0.815,0.793c0.079,0.029,0.158,0.059,0.236,0.092c0.16,0.067,0.319,0.134,0.479,0.201 c0.446,0.187,0.893,0.374,1.339,0.561c0.595,0.25,1.191,0.499,1.786,0.749c0.72,0.302,1.44,0.604,2.16,0.905 c0.82,0.344,1.64,0.687,2.46,1.031c0.895,0.375,1.791,0.751,2.686,1.126c0.946,0.397,1.893,0.794,2.839,1.19 c0.973,0.408,1.946,0.816,2.919,1.224c0.975,0.409,1.95,0.818,2.925,1.226c0.953,0.399,1.905,0.799,2.858,1.198 c0.906,0.38,1.811,0.759,2.717,1.139c0.834,0.35,1.668,0.699,2.503,1.049c0.738,0.309,1.476,0.619,2.215,0.929 c0.618,0.259,1.236,0.518,1.853,0.777c0.473,0.198,0.946,0.396,1.419,0.595c0.303,0.127,0.607,0.254,0.91,0.382 c0.109,0.046,0.219,0.092,0.329,0.138c0.33,0.139,0.708,0.063,0.959-0.195L82.8,43.515v-4.73v-3.322V33.53l-1.339,1.372 L79.159,37.259z" fill="rgb(224, 224, 224)" style="fill: rgb(224, 224, 224);"></path></g><g class="ld ld-breath" style="transform-origin: 50px 50px 0px; animation-duration: 1s; animation-delay: -0.6s; animation-direction: normal;"><path d="M87.375,28.845c0.911-0.933,1.3-2.253,1.041-3.531c-0.259-1.278-1.132-2.342-2.334-2.846L51.115,7.809 c-1.498-0.627-3.2-0.282-4.336,0.88c-0.164,0.168-0.327,0.335-0.491,0.503c-0.761,0.779-1.522,1.559-2.283,2.338 c-1.24,1.269-2.479,2.539-3.719,3.808c-1.56,1.598-3.121,3.196-4.681,4.794c-1.723,1.765-3.447,3.53-5.17,5.294 c-1.729,1.77-3.457,3.54-5.186,5.31c-1.576,1.614-3.152,3.228-4.728,4.842c-1.266,1.296-2.532,2.593-3.798,3.889 c-1.077,1.103-2.154,2.089-3.021,3.39c-0.596,0.895-0.963,1.825-1.335,2.831c-0.1,0.27-0.194,0.542-0.283,0.815 c-0.168,0.517-0.316,1.041-0.442,1.57c-0.247,1.034-0.411,2.088-0.484,3.149c-0.146,2.124,0.08,4.262,0.633,6.317 c0.44,1.636,1.002,3.311,2.089,4.64c0.518,0.633,1.068,1.107,1.83,1.372c0.208,0.072,0.41,0.172,0.613,0.257 c1.345,0.564,2.69,1.128,4.035,1.692c1.954,0.819,3.908,1.638,5.862,2.458c2.248,0.943,4.497,1.885,6.745,2.828 c2.228,0.934,4.456,1.868,6.683,2.802c1.893,0.793,3.785,1.587,5.678,2.38c1.242,0.521,2.485,1.042,3.727,1.563 c0.316,0.132,0.632,0.265,0.948,0.398c0.496,0.208,1.015,0.309,1.529,0.309c1.035,0,2.048-0.412,2.807-1.189l33.037-33.833 c0.911-0.933,1.3-2.253,1.041-3.531c-0.259-1.278-1.132-2.342-2.335-2.846l-0.217-0.091v-6.355L87.375,28.845z M82.8,35.463v3.322 v4.73L52.146,74.908c-0.252,0.258-0.629,0.334-0.959,0.195c-0.11-0.046-0.219-0.092-0.329-0.138 c-0.303-0.127-0.607-0.254-0.91-0.382c-0.473-0.198-0.946-0.396-1.419-0.595c-0.618-0.259-1.236-0.518-1.853-0.777 c-0.738-0.31-1.476-0.619-2.215-0.929c-0.834-0.35-1.668-0.699-2.503-1.049c-0.906-0.38-1.811-0.759-2.717-1.139 c-0.953-0.399-1.905-0.799-2.858-1.198c-0.975-0.409-1.95-0.818-2.925-1.226c-0.973-0.408-1.946-0.816-2.919-1.224 c-0.946-0.397-1.893-0.794-2.839-1.19c-0.895-0.375-1.791-0.751-2.686-1.126c-0.82-0.344-1.64-0.687-2.46-1.031 c-0.72-0.302-1.44-0.604-2.16-0.905c-0.595-0.25-1.191-0.499-1.786-0.749c-0.446-0.187-0.893-0.374-1.339-0.561 c-0.16-0.067-0.319-0.134-0.479-0.201c-0.078-0.033-0.157-0.063-0.236-0.092c-0.35-0.13-0.621-0.482-0.815-0.793 c-0.333-0.532-0.554-1.145-0.762-1.735c-0.216-0.613-0.402-1.237-0.555-1.869c-0.254-1.052-0.41-2.128-0.452-3.21 c-0.039-1.014-0.091-2.095,0.163-3.084c0.072-0.281,0.172-0.568,0.376-0.774c0.459-0.465,0.957-0.046,1.434,0.154 c0.52,0.218,1.04,0.436,1.56,0.654c0.717,0.301,1.434,0.601,2.152,0.902l3.039,1.274c0,0,27.307,11.448,27.307,11.449 c0.497,0.208,1.015,0.309,1.529,0.309c1.036,0,2.048-0.412,2.807-1.189l24.822-25.42l2.302-2.357L82.8,33.53V35.463z M85.183,26.705 l-6.76,6.923l-2.302,2.357L52.146,60.538c-0.252,0.257-0.629,0.334-0.96,0.194l0,0l-26.19-10.98l-3.039-1.274l-5.738-2.406 c-0.383-0.16-0.488-0.493-0.516-0.629c-0.019-0.093-0.033-0.287,0.049-0.495c0.016-0.033,0.033-0.067,0.049-0.1 c0.035-0.063,0.073-0.125,0.132-0.186l33.037-33.833c0.251-0.258,0.628-0.334,0.959-0.195l34.967,14.66 c0.383,0.16,0.488,0.494,0.516,0.629C85.441,26.059,85.473,26.407,85.183,26.705z" fill="#5794fe" style="fill: rgb(87, 148, 254);"></path></g><g class="ld ld-breath" style="transform-origin: 50px 50px 0px; animation-duration: 1s; animation-delay: -0.55s; animation-direction: normal;"><path class="st0" d="M44.198,37.156l-2.126-5.455l-8.505,1.083c-0.757,0.096-1.21-0.45-0.758-0.914L54.776,9.357l12.984,5.34 L45.794,37.211C45.342,37.674,44.387,37.642,44.198,37.156z" fill="#9d68ff" style="fill: rgb(157, 104, 255);"></path></g><g class="ld ld-breath" style="transform-origin: 50px 50px 0px; animation-duration: 1s; animation-delay: -0.5s; animation-direction: normal;"><path class="st0" d="M36.859,92.116l-2.126-5.455l-8.505,1.083c-0.757,0.096-1.21-0.45-0.758-0.914l9.915-10.153l12.984,5.34 l-9.915,10.153C38.002,92.634,37.048,92.602,36.859,92.116z" fill="#9d68ff" style="fill: rgb(157, 104, 255);"></path></g><metadata xmlns:d="https://loading.io/stock/" class="ld ld-breath" style="transform-origin: 50px 50px 0px; animation-duration: 1s; animation-delay: -0.45s; animation-direction: normal;">
<d:name class="ld ld-breath" style="transform-origin: 50px 50px 0px; animation-duration: 1s; animation-delay: -0.4s; animation-direction: normal;">tag</d:name>
<d:tags class="ld ld-breath" style="transform-origin: 50px 50px 0px; animation-duration: 1s; animation-delay: -0.35s; animation-direction: normal;">label,flag,bookmark,favorite,collection,mark,tag,books</d:tags>
<d:license class="ld ld-breath" style="transform-origin: 50px 50px 0px; animation-duration: 1s; animation-delay: -0.3s; animation-direction: normal;">cc-by</d:license>
<d:slug class="ld ld-breath" style="transform-origin: 50px 50px 0px; animation-duration: 1s; animation-delay: -0.25s; animation-direction: normal;">9ubvj5</d:slug>
</metadata></g></g></g></g><style type="text/css" class="ld ld-breath" style="transform-origin: 50px 50px 0px; animation-duration: 1s; animation-delay: -0.2s; animation-direction: normal;">path,ellipse,circle,rect,polygon,polyline,line { stroke-width: 0; }@keyframes ld-breath {
  0% {
    -webkit-transform: scale(0.9);
    transform: scale(0.9);
  }
  50% {
    -webkit-transform: scale(1);
    transform: scale(1);
  }
  100% {
    -webkit-transform: scale(0.9);
    transform: scale(0.9);
  }
}
@-webkit-keyframes ld-breath {
  0% {
    -webkit-transform: scale(0.9);
    transform: scale(0.9);
  }
  50% {
    -webkit-transform: scale(1);
    transform: scale(1);
  }
  100% {
    -webkit-transform: scale(0.9);
    transform: scale(0.9);
  }
}
.ld.ld-breath {
  -webkit-animation: ld-breath 1s infinite;
  animation: ld-breath 1s infinite;
}
</style></svg></svg>